<?xml version="1.0" encoding="UTF-8"?>
<svg id="Layer_1" data-name="Layer 1" xmlns="http://www.w3.org/2000/svg" version="1.1" xmlns:xlink="http://www.w3.org/1999/xlink" viewBox="0 0 1920 1080">
  <defs>
    <style>
      .cls-1 {
        filter: url(#luminosity-invert-noclip-8);
      }

      .cls-2 {
        mask: url(#mask-2);
      }

      .cls-3 {
        filter: url(#luminosity-invert-noclip-2);
      }

      .cls-4 {
        mask: url(#mask-3);
      }

      .cls-5 {
        filter: url(#luminosity-invert-noclip-9);
      }

      .cls-6 {
        fill: #f7941f;
      }

      .cls-6, .cls-7, .cls-8, .cls-9, .cls-10 {
        stroke-width: 0px;
      }

      .cls-11 {
        mask: url(#mask-5);
      }

      .cls-7 {
        fill: #772217;
      }

      .cls-8 {
        fill: #f7b23d;
      }

      .cls-12 {
        filter: url(#luminosity-invert-noclip-3);
      }

      .cls-13 {
        filter: url(#luminosity-invert-noclip-6);
      }

      .cls-14 {
        mask: url(#mask-8);
      }

      .cls-15 {
        mask: url(#mask-4);
      }

      .cls-9 {
        fill: #f15c2b;
      }

      .cls-16 {
        mask: url(#mask-6);
      }

      .cls-17 {
        filter: url(#luminosity-invert-noclip-5);
      }

      .cls-18 {
        filter: url(#luminosity-invert-noclip-7);
      }

      .cls-10 {
        fill: #fff;
      }

      .cls-19 {
        mask: url(#mask-1);
      }

      .cls-20 {
        mask: url(#mask);
      }

      .cls-21 {
        filter: url(#luminosity-invert-noclip-4);
      }

      .cls-22 {
        mask: url(#mask-7);
      }

      .cls-23 {
        filter: url(#luminosity-invert-noclip);
      }
    </style>
    <filter id="luminosity-invert-noclip" x="901.82" y="495.56" width="132.89" height="232.02" color-interpolation-filters="sRGB" filterUnits="userSpaceOnUse">
      <feColorMatrix result="cm" values="-1 0 0 0 1 0 -1 0 0 1 0 0 -1 0 1 0 0 0 1 0"/>
      <feFlood flood-color="#fff" result="bg"/>
      <feBlend in="cm" in2="bg"/>
    </filter>
    <mask id="mask" x="901.82" y="495.56" width="132.89" height="232.02" maskUnits="userSpaceOnUse">
      <g class="cls-23">
        <path class="cls-10" d="M939.01,598.9c9.24-6.47,21.02-7.42,31.95-6.54,9.96.84,19.48,6.3,25.01,14.66,5.15,7.65,7.41,16.8,8.56,25.84,1.49,12.66,1.23,25.63-1.49,38.11-2.33,10.56-7.23,21.41-16.59,27.48-8.31,5.51-18.79,6.17-28.42,4.93-11.06-2.2-21.63-7.81-28.62-16.82,0-23.87.01-47.73,0-71.6-.21-6.68,4.21-12.57,9.61-16.06h0Z"/>
      </g>
    </mask>
    <filter id="luminosity-invert-noclip-2" x="449.67" y="568.73" width="141.09" height="158.82" color-interpolation-filters="sRGB" filterUnits="userSpaceOnUse">
      <feColorMatrix result="cm" values="-1 0 0 0 1 0 -1 0 0 1 0 0 -1 0 1 0 0 0 1 0"/>
      <feFlood flood-color="#fff" result="bg"/>
      <feBlend in="cm" in2="bg"/>
    </filter>
    <mask id="mask-1" x="449.67" y="568.73" width="141.09" height="158.82" maskUnits="userSpaceOnUse">
      <g class="cls-3">
        <path class="cls-10" d="M515,592.87c10.1-.88,21.11.24,29.39,6.64,8.74,6.42,13.4,16.92,15.42,27.31,2.48,12.83,2.42,26.1.43,38.98-1.79,11.02-5.87,22.37-14.62,29.78-9.26,8.44-22.84,10.11-34.77,7.93-8.93-1.49-16.66-7.26-21.86-14.5-8.31-11.55-10.23-26.2-10.63-40.06-.05-13.52,1.95-27.67,9.25-39.33,5.86-9.48,16.27-15.88,27.39-16.75h0Z"/>
      </g>
    </mask>
    <filter id="luminosity-invert-noclip-3" x="1055.67" y="569.29" width="138.59" height="156.85" color-interpolation-filters="sRGB" filterUnits="userSpaceOnUse">
      <feColorMatrix result="cm" values="-1 0 0 0 1 0 -1 0 0 1 0 0 -1 0 1 0 0 0 1 0"/>
      <feFlood flood-color="#fff" result="bg"/>
      <feBlend in="cm" in2="bg"/>
    </filter>
    <mask id="mask-2" x="1055.67" y="569.29" width="138.59" height="156.85" maskUnits="userSpaceOnUse">
      <g class="cls-12">
        <path class="cls-10" d="M1121.22,648.79c10.12-1.36,20.34-1.46,30.53-1.33-.02,10.54.01,21.08,0,31.63.22,3.64-1.72,6.97-4.09,9.59-6.32,6.98-15.24,10.99-24.17,13.5-8.68,2.09-18.09,2.45-26.67-.26-6.99-2.15-11.3-8.91-12.97-15.69-1.63-7.97-.62-17.11,5.12-23.29,8.09-9.17,20.58-12.51,32.25-14.15h0Z"/>
      </g>
    </mask>
    <filter id="luminosity-invert-noclip-4" x="847.37" y="770.81" width="50.31" height="68.66" color-interpolation-filters="sRGB" filterUnits="userSpaceOnUse">
      <feColorMatrix result="cm" values="-1 0 0 0 1 0 -1 0 0 1 0 0 -1 0 1 0 0 0 1 0"/>
      <feFlood flood-color="#fff" result="bg"/>
      <feBlend in="cm" in2="bg"/>
    </filter>
    <mask id="mask-3" x="847.37" y="770.81" width="50.31" height="68.66" maskUnits="userSpaceOnUse">
      <g class="cls-21">
        <path class="cls-10" d="M866.33,778.48c4.19-1.79,9.25-1.28,13.05,1.23,3.21,2.18,5.1,5.81,6.21,9.44,2.07,7.48,2.07,15.58-.39,22.97-1.59,4.51-4.66,8.93-9.35,10.56-5.78,2.2-12.96-.1-16.11-5.48-3.83-6.28-4.5-14.04-3.76-21.21.87-6.8,3.66-14.48,10.35-17.51h0Z"/>
      </g>
    </mask>
    <filter id="luminosity-invert-noclip-5" x="944.09" y="788.06" width="39.27" height="41.75" color-interpolation-filters="sRGB" filterUnits="userSpaceOnUse">
      <feColorMatrix result="cm" values="-1 0 0 0 1 0 -1 0 0 1 0 0 -1 0 1 0 0 0 1 0"/>
      <feFlood flood-color="#fff" result="bg"/>
      <feBlend in="cm" in2="bg"/>
    </filter>
    <mask id="mask-4" x="944.09" y="788.06" width="39.27" height="41.75" maskUnits="userSpaceOnUse">
      <g class="cls-17">
        <path class="cls-10" d="M961.15,793.89c4.32-.66,8.8,1.67,11.1,5.32.46,5.56.35,11.22.07,16.8-2.11,5.18-8.12,9.28-13.75,7.26-6.03-2.74-7.46-10.26-6.97-16.22.28-5.64,3.38-12.23,9.55-13.16h0Z"/>
      </g>
    </mask>
    <filter id="luminosity-invert-noclip-6" x="1103.13" y="788.09" width="37.66" height="41.82" color-interpolation-filters="sRGB" filterUnits="userSpaceOnUse">
      <feColorMatrix result="cm" values="-1 0 0 0 1 0 -1 0 0 1 0 0 -1 0 1 0 0 0 1 0"/>
      <feFlood flood-color="#fff" result="bg"/>
      <feBlend in="cm" in2="bg"/>
    </filter>
    <mask id="mask-5" x="1103.13" y="788.09" width="37.66" height="41.82" maskUnits="userSpaceOnUse">
      <g class="cls-13">
        <path class="cls-10" d="M1117.4,794.53c4.76-2.12,11.23-.63,13.67,4.24,3.18,6.2,3.24,14.07-.04,20.26-2.78,5.09-9.92,6.75-14.79,3.74-4.56-2.88-5.67-8.79-5.76-13.79-.07-5.42,1.49-12.01,6.92-14.45h0Z"/>
      </g>
    </mask>
    <filter id="luminosity-invert-noclip-7" x="1248.22" y="788" width="35.41" height="41.81" color-interpolation-filters="sRGB" filterUnits="userSpaceOnUse">
      <feColorMatrix result="cm" values="-1 0 0 0 1 0 -1 0 0 1 0 0 -1 0 1 0 0 0 1 0"/>
      <feFlood flood-color="#fff" result="bg"/>
      <feBlend in="cm" in2="bg"/>
    </filter>
    <mask id="mask-6" x="1248.22" y="788" width="35.41" height="41.81" maskUnits="userSpaceOnUse">
      <g class="cls-18">
        <path class="cls-10" d="M1260.24,796.24c3.61-3.34,10.01-3.72,13.46.05,2.4,2.28,2.67,5.75,2.95,8.86-6.94.01-13.87.02-20.8-.01.63-3.27,1.75-6.68,4.39-8.9h0Z"/>
      </g>
    </mask>
    <filter id="luminosity-invert-noclip-8" x="1342.34" y="788.08" width="37.87" height="41.84" color-interpolation-filters="sRGB" filterUnits="userSpaceOnUse">
      <feColorMatrix result="cm" values="-1 0 0 0 1 0 -1 0 0 1 0 0 -1 0 1 0 0 0 1 0"/>
      <feFlood flood-color="#fff" result="bg"/>
      <feBlend in="cm" in2="bg"/>
    </filter>
    <mask id="mask-7" x="1342.34" y="788.08" width="37.87" height="41.84" maskUnits="userSpaceOnUse">
      <g class="cls-1">
        <path class="cls-10" d="M1356.45,794.66c4.73-2.29,11.19-.87,13.83,3.9,3.21,6.12,3.31,13.89.28,20.1-2.93,6.14-12.21,7.55-16.85,2.61-3.49-3.84-4.11-9.37-3.89-14.33.31-4.74,2.05-10.08,6.63-12.28h0Z"/>
      </g>
    </mask>
    <filter id="luminosity-invert-noclip-9" x="1481.09" y="787.99" width="35.39" height="41.8" color-interpolation-filters="sRGB" filterUnits="userSpaceOnUse">
      <feColorMatrix result="cm" values="-1 0 0 0 1 0 -1 0 0 1 0 0 -1 0 1 0 0 0 1 0"/>
      <feFlood flood-color="#fff" result="bg"/>
      <feBlend in="cm" in2="bg"/>
    </filter>
    <mask id="mask-8" x="1481.09" y="787.99" width="35.39" height="41.8" maskUnits="userSpaceOnUse">
      <g class="cls-5">
        <path class="cls-10" d="M1492.13,797.07c3.4-3.85,10.07-4.85,13.97-1.2,2.54,2.21,2.93,5.79,3.5,8.91-6.97.71-13.98.27-20.96.36.7-2.85,1.39-5.88,3.49-8.07h0Z"/>
      </g>
    </mask>
  </defs>
  <path class="cls-8" d="M1452.19,237.95c13.4,5.73,26.35,16.13,29.72,30.97,2.33,10.35.75,21.21-2.68,31.14-9.67-4.36-18.8-10.65-24.77-19.57-8.3-12.56-6.96-28.89-2.27-42.54h0Z"/>
  <path class="cls-8" d="M1550.07,263.09c4.88-11.8,15.46-20.34,26.8-25.62,4.14,11.57,6.45,24.61,2.11,36.47-4.59,12.33-15.56,20.98-27.05,26.6-4.41-11.83-6.58-25.37-1.86-37.45h0Z"/>
  <path class="cls-6" d="M1512.28,277.32c.9-1.03,2.53-3.39,3.73-1.33,8.9,9.98,15.7,23.34,13.86,37.05-1.6,11.07-7.52,21.16-15.2,29.13-7.42-8.17-13.54-18.09-15.01-29.2-1.76-13.11,4.43-25.81,12.62-35.65h0Z"/>
  <path class="cls-6" d="M1437.67,306.36c12.77.48,26.29,4.13,35.42,13.55,8.7,9.15,12,22.13,12.44,34.45-12.69-.87-26.15-4.22-35.23-13.7-8.81-9.09-11.77-22.06-12.63-34.3h0Z"/>
  <path class="cls-6" d="M1556.42,320.43c9.09-9.61,22.71-13.13,35.52-13.81-.29,11.52-3.38,23.46-10.83,32.47-9,10.74-23.48,14.63-36.95,15.37.43-12.17,3.74-24.95,12.26-34.03h0Z"/>
  <path class="cls-8" d="M1628.38,320.67c10.78-2.79,22.3-1.4,32.7,2.31-4.17,9.45-10.32,18.28-18.88,24.25-12.64,8.79-29.39,7.52-43.31,2.72,5.65-12.89,15.41-25.33,29.49-29.28h0Z"/>
  <path class="cls-8" d="M1368.46,324.01c11.59-4.29,24.74-6.46,36.65-2.16,12.21,4.66,21.04,15.47,26.48,27.03-11.85,4.34-25.37,6.6-37.44,1.8-11.84-4.82-20.27-15.42-25.69-26.67h0Z"/>
  <path class="cls-9" d="M1508.5,354.72c8.63-1.79,18.02.27,24.86,5.9,9.11,7.22,13.21,20.16,9.7,31.27-3.28,11.83-14.75,20.9-27.08,20.97-12,.88-23.83-6.73-28.4-17.78-3.16-7.39-3.11-16.08.15-23.43,3.7-8.52,11.67-15.01,20.77-16.93h0Z"/>
  <path class="cls-6" d="M1405.63,383.41c8.53-7.44,18.7-13.88,30.21-15.04,14.13-1.47,27.54,5.87,37.57,15.25-8.5,7.56-18.79,13.93-30.32,15.1-14.09,1.38-27.51-5.89-37.46-15.31h0Z"/>
  <path class="cls-6" d="M1576.83,370.55c8.4-3.15,17.95-3.15,26.35.01,7.72,2.79,14.72,7.4,20.65,13.05-8.31,7.49-18.42,13.73-29.72,15.05-14.26,1.68-27.74-5.75-37.96-15.05,5.94-5.66,12.94-10.28,20.68-13.06h0Z"/>
  <path class="cls-8" d="M1386.04,411.11c11.95-5.25,25.68-3.65,37.7.52-5.17,11.3-13.01,22.23-24.66,27.45-11.92,5.23-25.67,3.66-37.65-.57,5.19-11.26,13.04-22.12,24.61-27.4h0Z"/>
  <path class="cls-8" d="M1598.36,412.75c11.15-4.3,23.76-6.28,35.38-2.71,12.92,4.27,21.95,15.58,27.9,27.34-11.01,4.26-23.46,6.51-34.97,2.87-13.14-4.12-22.37-15.58-28.31-27.5h0Z"/>
  <path class="cls-6" d="M1450.56,425.58c9.22-8.99,22.37-12.19,34.87-13.02-.51,11.62-3.53,23.65-11.09,32.75-9.08,10.55-23.51,14.56-36.96,15.1.71-12.51,4.1-25.7,13.18-34.83h0Z"/>
  <path class="cls-6" d="M1544.07,413c11.93.26,24.24,3.67,33.37,11.63,9.96,9.1,13.75,23.04,14.26,36.12-12.45-.55-25.47-4.05-34.66-12.89-8.99-9.15-12.66-22.3-12.97-34.86h0Z"/>
  <path class="cls-6" d="M1514.73,424.85c7.22,7.74,13.02,17.18,14.92,27.71,2.6,14.83-4.96,29.55-15.06,39.94-7.76-8.86-14.41-19.55-15.15-31.59-.84-13.64,6.34-26.3,15.29-36.06h0Z"/>
  <path class="cls-8" d="M1454.72,487.7c5.14-11.13,15.33-19.09,26.17-24.3,4.37,11.85,6.58,25.4,1.81,37.48-4.83,11.84-15.49,20.15-26.69,25.63-4.59-12.27-6.77-26.47-1.29-38.81h0Z"/>
  <path class="cls-8" d="M1550.88,463.89c9.47,4.21,18.36,10.34,24.35,18.93,8.76,12.61,7.39,29.28,2.7,43.18-12.9-5.62-25.41-15.34-29.35-29.42-2.74-10.78-1.42-22.31,2.3-32.69h0Z"/>
  <path class="cls-7" d="M620.78,496.2c7.37-1.13,15.63-.39,21.64,4.43,5.04,4.18,5.91,11.23,5.92,17.38-.01,58.66.01,117.32-.01,175.98.14,4.78-.41,10.65,3.57,14.14,3.16,2.93,7.74,2.25,11.64,3.09.26,3.83.08,7.68.09,11.53-7.4,1.92-15.11,2.45-22.72,1.9-5.03-.37-10.12-2.27-13.59-6.04-4.5-4.66-5.88-11.39-6.05-17.65-.7-7.31-.44-14.64-.48-21.97-.01-60.93.02-121.86-.01-182.79h0Z"/>
  <path class="cls-7" d="M689.35,496.08c7.2-.96,15.2-.18,21.11,4.4,4.88,3.91,6.04,10.58,6.07,16.49.03,59.35,0,118.69,0,178.04.08,4.26,0,9.09,2.9,12.54,3.15,3.34,8.08,3.12,12.29,3.41.1,3.95.11,7.91.02,11.87-7.8,1.88-15.9,2.48-23.88,1.69-6.27-.66-12.34-4.24-15.23-9.95-3.68-6.91-3.2-14.99-3.42-22.58-.05-54.34-.01-108.67-.02-163,.11-10.97-.22-21.95.15-32.91h0Z"/>
  <g class="cls-20">
    <path class="cls-7" d="M902.18,495.74c7.11-.48,14.95-.3,20.83,4.28,5.19,3.9,6.39,10.88,6.4,16.97,0,22.62.03,45.23-.02,67.84,7.3-6.62,16.11-11.76,25.71-14.16,14.35-3.16,29.79-2.69,43.46,3,12.23,5.12,22,15.26,27.52,27.21,7.89,16.12,9.12,34.49,8.48,52.15-.52,17-4.33,34.33-13.86,48.66-8.05,12.36-21.18,21.18-35.64,24.08-19.55,4.62-42.8.67-56.3-15.24,0,4.06,0,8.12.01,12.18-8.86.02-17.72-.02-26.58.03-.72-23.91-.13-47.85-.32-71.77v-101.94c.19-17.76-.4-35.54.31-53.29h0Z"/>
  </g>
  <path class="cls-7" d="M1383.23,495.76c7.09-.51,14.91-.37,20.81,4.16,5.26,3.88,6.51,10.89,6.54,17.02.01,68.6,0,137.19.01,205.78-9.13,0-18.26,0-27.38,0,.03-75.66-.03-151.31.02-226.96h0Z"/>
  <path class="cls-7" d="M257.45,505.32c6.64-1.15,13.93-1.23,19.98,2.13,5.67,3.22,8.13,10.01,8.04,16.27.13,24.16-.01,48.32.06,72.48,33.77,0,67.53-.02,101.29,0,.55-4.71.34-9.46.36-14.2.01-25.57-.01-51.14.01-76.71,7.13-1.19,15.27-1.27,21.36,3.18,5.11,3.8,6.63,10.47,6.71,16.51.03,64.87-.01,129.74.02,194.62-9.37.05-18.73,0-28.1.03.01-33.02,0-66.03.01-99.04-33.9-.04-67.79,0-101.68-.02.02,33.02,0,66.04.01,99.06-9.35-.02-18.71-.02-28.06,0,0-71.44.01-142.88,0-214.32h0Z"/>
  <g class="cls-19">
    <path class="cls-7" d="M508.51,569.66c17.94-2.47,37.43-.3,52.69,10.13,13.23,8.62,21.99,22.9,25.88,38.01,5.18,19.93,4.83,41.26-.66,61.09-4.49,16.11-14.62,30.99-29.26,39.45-14.47,8.86-32.17,10.31-48.69,8.57-16.2-1.7-32.01-9.43-42.27-22.25-9.98-12.35-14.27-28.22-15.86-43.76-1.97-19.08.26-39.06,9.07-56.29,9.51-18.61,28.31-32.24,49.1-34.95h0Z"/>
  </g>
  <g class="cls-2">
    <path class="cls-7" d="M1084.94,574.93c15.44-5.1,31.93-6.46,48.09-5.19,11.23,1.02,22.88,4.11,31.46,11.8,6.5,5.77,10.35,13.97,12,22.4,2.56,11.53,1.9,23.4,1.98,35.12.02,17.62-.03,35.25.03,52.88.17,4.69.18,9.71,2.49,13.93,2.89,4.33,8.67,3.84,13.25,4.01,0,4.31-.02,8.63.02,12.95-11.02,3.28-23.73,3.73-33.97-2.14-4.88-2.76-7.05-8.3-8.05-13.53-8.79,8.51-19.71,15.29-31.86,17.55-12.4,2.16-25.38,2.08-37.46-1.68-13.75-4.29-24.28-16.88-26.39-31.08-1.83-11.77-1.07-24.67,5.5-34.94,6.32-9.32,15.59-16.45,25.87-20.93,14.13-6.51,29.79-8.21,45.12-9.45,6.16-.31,12.34-.24,18.51.03.23-10.1-.81-22.12-9.61-28.65-8.83-5.58-19.88-5.5-29.95-5.05-13.46.49-26.27,5.91-37.15,13.61-1.38-.41-3.58.38-4.19-1.32-2.57-4.73-4.97-9.83-5.27-15.28-.19-3.07,1.93-5.62,4.2-7.4,4.56-3.54,9.96-5.78,15.38-7.64h0Z"/>
  </g>
  <path class="cls-7" d="M1244.88,587.66c12.4-11.56,29.18-18.44,46.18-18.48,11.96-.41,24.8.75,34.88,7.86,9.84,6.93,16.29,18.1,18.05,29.96,2.02,13.24,1.11,26.69,1.35,40.04-.01,25.36.03,50.72-.02,76.09-9.17-.15-18.36.32-27.51-.32-.01-33.28.07-66.56-.05-99.83.03-8.32-2.25-17.35-8.81-22.93-6.03-5.2-14.36-5.95-21.96-6.31-11.26.08-23.16,1.93-32.43,8.76-4.48,3.45-8.67,8.48-8.39,14.46.02,35.28-.01,70.56.02,105.84-9.14.66-18.32.18-27.47.33-.04-50.46-.03-100.92-.01-151.38,6.47-.48,13.4-.17,18.96,3.56,4.41,2.54,6.26,7.61,7.21,12.35h0Z"/>
  <path class="cls-7" d="M1481.64,572.64c5.44-2.69,12.02-3.08,17.69-.84,3.09,1.23,5.73,3.31,8.38,5.28-20.46,20.27-41.16,40.3-61.56,60.63,23.81,28.14,47.41,56.46,71.12,84.7-9.6,3.46-20.73,4.4-30.07-.35-6.87-3.22-11.27-9.6-16.1-15.15-17.79-20.99-35.66-41.91-53.41-62.93.01-3.49.01-6.98-.02-10.46,15.73-15.88,31.68-31.54,47.51-47.32,5.08-4.96,9.9-10.51,16.46-13.56h0Z"/>
  <path class="cls-7" d="M740.29,574.17c5.88-2.35,12.46-3.14,18.73-2.15,8.05,1.52,13.29,8.92,15.93,16.18,12.07,36.74,23.61,73.66,35.83,110.35,10.94-34.14,22.53-68.07,33.73-102.13,2.28-7.28,4.44-15.27,10.63-20.3,7.02-6.01,17.51-5.54,25.47-1.72-15.16,43.86-30.25,87.75-45.36,131.63-6.37,17.76-11.8,35.86-18.97,53.32-4.65,11.5-11.8,22.67-22.83,28.95-11.41,6.91-25.53,7.35-38.35,5.09-6.04-1.34-13.39-3.71-15.33-10.34-1.56-7.64,3.1-14.58,7.05-20.67,7.44,6.36,17.47,10.22,27.27,7.69,6.75-1.52,11.99-6.62,15.37-12.46,6.55-10.74,9.5-23.09,13.34-34.94-3.62,0-7.23,0-10.84-.03-15.48-44.37-31.03-88.72-46.51-133.1-1.67-5.14-3.88-10.12-5.16-15.37h0Z"/>
  <path class="cls-7" d="M1155.2,772.13c4.94-4.1,11.96-3.21,17.61-1.22-.21,1.8-.45,3.6-.69,5.41-3.63-.65-7.67-2.14-11.16-.28-3.78,3-2.91,8.46-3.17,12.72,3.84.06,7.69-.05,11.53.32,0,1.57,0,3.16.01,4.76-3.82.38-7.66.33-11.49.36-.08,11.55.2,23.11-.15,34.66-2.35-.01-4.69-.06-7.02-.11-.16-11.53-.03-23.06-.06-34.6h-5.93c-.01-1.56.03-3.1.13-4.63,1.65-1.17,3.85-.56,5.76-.79.07-5.71,0-12.48,4.63-16.6h0Z"/>
  <path class="cls-7" d="M1232.55,772.56c4.91-4.59,12.34-3.7,18.19-1.6-.27,1.8-.61,3.6-1.03,5.39-3.47-.73-7.37-2.1-10.75-.4-4.04,2.9-3.07,8.53-3.31,12.84,3.85.02,7.73-.1,11.57.39,0,1.15-.01,3.45-.01,4.6-3.83.45-7.68.4-11.52.39-.13,11.69.32,23.39-.25,35.07-2.3-.14-4.58-.3-6.85-.52-.19-11.52-.05-23.05-.08-34.56-1.98,0-3.95-.02-5.9,0-.03-1.78-.02-3.55.03-5.31,1.93-.03,3.87-.03,5.83-.02.05-5.56-.2-12.03,4.08-16.26h0Z"/>
  <path class="cls-7" d="M1326.37,772.48c4.88-4.59,12.31-3.56,18.1-1.49-.36,1.78-.74,3.56-1.12,5.34-3.58-.71-7.79-2.29-11.11-.07-3.63,3.06-2.64,8.34-2.88,12.55,3.77,0,7.54-.01,11.33.03,0,1.76-.02,3.53-.05,5.3-3.75.02-7.5,0-11.24,0-.04,11.54.07,23.08-.06,34.62-2.35.12-4.69.13-7.02.06-.19-11.55-.04-23.11-.08-34.66-1.98-.01-3.95-.02-5.89-.02-.03-1.78-.02-3.55.03-5.31,1.92-.03,3.87-.04,5.83-.05.02-5.59-.35-12.19,4.16-16.31h0Z"/>
  <path class="cls-7" d="M1465.5,772.45c4.91-4.51,12.29-3.56,18.08-1.47-.33,1.79-.69,3.57-1.07,5.36-3.77-.76-8.49-2.52-11.74.41-2.87,3.31-2.12,8.02-2.29,12.06,3.76,0,7.53-.01,11.31.02.06,1.77.04,3.54-.05,5.32-3.75,0-7.49,0-11.22,0-.04,11.54.08,23.09-.07,34.63-2.34.1-4.67.11-6.99.06-.2-11.56-.04-23.12-.09-34.68-2,0-3.99,0-5.96,0-.03-1.78-.02-3.55.03-5.31,1.95-.03,3.91-.04,5.9-.04.03-5.6-.32-12.18,4.16-16.35h0Z"/>
  <path class="cls-7" d="M990.36,770.77c2.33-.28,4.67-.5,7.02-.62.11,19.65.3,39.32-.1,58.96-2.27.02-4.53.02-6.79.02-.51-19.44-.25-38.91-.13-58.36h0Z"/>
  <path class="cls-7" d="M1190.48,770.77c2.32-.27,4.65-.5,7-.64.17,19.56.12,39.12.03,58.68-2.36.06-4.7.07-7.03.03-.13-19.36-.14-38.72,0-58.07h0Z"/>
  <path class="cls-7" d="M1423.34,770.75c2.32-.27,4.65-.48,7-.58.14,19.5.11,39.01.02,58.51-2.3.24-4.6.42-6.88.56-.5-19.48-.22-39-.14-58.49h0Z"/>
  <g class="cls-4">
    <path class="cls-7" d="M858.15,775.19c8.47-6.29,21.54-5.85,29.19,1.59,5.83,5.77,7.85,14.25,8.15,22.2.36,10.49-3.26,22.03-12.59,27.84,4.81,2.58,9.68,5.04,14.78,7-.7,1.89-1.4,3.79-2.21,5.65-6.11-.88-11-4.68-15.9-8.09-3.42-2.45-7.77-1.46-11.66-1.76-6.5-.28-12.5-4.24-15.8-9.75-4.5-7.39-5.34-16.43-4.39-24.86,1-7.52,4.21-15.17,10.43-19.82h0Z"/>
  </g>
  <path class="cls-7" d="M1010.39,775.42c2.19-.61,4.97.21,5.67,2.6,1.53,3.64-3.81,7.03-6.7,4.57-2.89-1.56-2.26-6.56,1.03-7.17h0Z"/>
  <path class="cls-7" d="M1210.34,775.48c2.51-.91,6.16.51,5.99,3.59.38,3.39-4.4,5.7-6.93,3.46-2.78-1.57-2.16-6.29.94-7.05h0Z"/>
  <path class="cls-7" d="M1443.39,775.41c2.18-.63,4.99.34,5.65,2.7,1.34,3.62-3.81,6.83-6.7,4.54-2.91-1.57-2.33-6.68,1.05-7.24h0Z"/>
  <path class="cls-7" d="M1028.35,777.86c2.28-.22,4.57-.43,6.87-.54.08,3.83.06,7.66.06,11.49,3.65-.02,7.32-.09,10.96.34,0,1.16-.01,3.48-.01,4.64-3.64.42-7.3.4-10.95.37.04,7.62-.05,15.24.02,22.86.06,2.2.16,4.92,2.26,6.24,3.18,1.84,6.78-.02,10.15-.03.5,1.56.76,3.19,1.05,4.82-4.64,1.63-9.81,2.49-14.58.95-3.02-.97-5.33-3.73-5.73-6.87-1.29-9.26-.09-18.61-.32-27.91-1.92-.04-3.84-.07-5.73-.09-.03-1.76-.03-3.52,0-5.27,1.91-.05,3.83-.08,5.76-.12-.4-3.63-.29-7.27.19-10.88h0Z"/>
  <g class="cls-15">
    <path class="cls-7" d="M953.99,789.89c6.03-3.2,13.96-2.15,18.84,2.7-.07-1.11-.12-2.2-.16-3.28,2.27-.29,4.54-.5,6.83-.61.54,11.54-.16,23.11.39,34.65,1.15.32,2.3.65,3.47.99-.03,1.49-.06,2.98-.07,4.48-2.57.19-5.3.71-7.69-.49-1.74-1.03-2.12-3.13-2.69-4.87-3.19,3.79-7.86,6.68-12.98,6.32-5.6.15-10.96-3.3-13.34-8.32-2.59-4.72-2.72-10.29-2.34-15.53.49-6.44,3.89-12.96,9.74-16.04h0Z"/>
  </g>
  <g class="cls-11">
    <path class="cls-7" d="M1116.41,788.71c5.53-1.05,11.8-1.06,16.62,2.23,4.35,2.86,6.83,7.91,7.44,12.98.71,5.93.43,12.38-2.85,17.57-6.29,10.69-24.26,11.41-31.11.96-3.45-5.11-3.69-11.59-3.17-17.53.61-7.35,5.75-14.41,13.07-16.21h0Z"/>
  </g>
  <g class="cls-16">
    <path class="cls-7" d="M1252.25,795.37c6.07-8.76,21.15-10.28,27.82-1.45,3.48,4.45,3.74,10.37,3.49,15.78-9.29,1.09-18.68.18-28.01.55.63,4.77,2.46,9.97,7.08,12.23,5.55,2.7,12,.94,17.61-.72.52,1.74,1.02,3.49,1.5,5.26-6.26,2.65-13.32,3.53-19.99,2.14-6.35-1.46-11.31-6.8-12.75-13.1-1.47-6.93-1.11-14.81,3.25-20.69h0Z"/>
  </g>
  <g class="cls-22">
    <path class="cls-7" d="M1355.47,788.78c5.73-1.21,12.32-1.13,17.27,2.42,3.87,2.67,6.06,7.22,6.91,11.75,1.18,6.28.61,13.2-2.85,18.72-6.29,10.36-23.62,11.17-30.67,1.26-3.98-5.78-4.39-13.27-3.21-19.98,1.22-6.53,6.01-12.44,12.55-14.17h0Z"/>
  </g>
  <path class="cls-7" d="M1394.92,792.71c3.16-3.74,7.94-5.35,12.75-4.4-.23,1.97-.48,3.94-.83,5.9-4.3-.55-9.59.71-11.47,4.97-.35,9.82.04,19.66-.18,29.49-2.45.29-4.92.3-7.35,0,.03-12.92-.21-25.86.11-38.76,1.48-2.02,4.44-.74,6.57-1.14.13,1.31.26,2.62.4,3.94h0Z"/>
  <g class="cls-14">
    <path class="cls-7" d="M1484.34,796.38c5.44-9.2,20.22-11.5,27.64-3.52,4.16,4.49,4.72,10.97,4.43,16.81-9.31,1.15-18.74.2-28.1.58.75,4.24,1.95,8.99,5.83,11.48,5.65,3.77,12.83,1.76,18.87.09.52,1.64,1.03,3.27,1.59,4.93-5.95,3.12-12.99,3.6-19.53,2.54-6.98-1.38-12.44-7.46-13.52-14.43-.88-6.22-.78-13.06,2.79-18.48h0Z"/>
  </g>
  <path class="cls-7" d="M903.56,789.11c2.33-.29,4.68-.26,7.02.03.22,8.64-.04,17.28.12,25.91.07,3.15,1.02,7.05,4.45,8.09,5.1,1.78,10.1-1.32,14.17-4.12.09-9.97-.14-19.95.13-29.92,2.33-.28,4.69-.26,7.04.03.14,13.22.17,26.45-.02,39.68-2.27,0-4.54.03-6.8-.01-.04-.91-.12-2.72-.16-3.63-5.38,4.21-12.96,6.13-19.42,3.43-4.74-2.19-6.64-7.68-6.6-12.58-.02-8.97-.1-17.94.07-26.91h0Z"/>
  <path class="cls-7" d="M1008.37,789.16c2.33-.31,4.69-.35,7.04-.05.2,13.23.2,26.47,0,39.7-2.36.09-4.7.07-7.04-.05-.15-13.2-.15-26.4,0-39.6h0Z"/>
  <path class="cls-7" d="M1051.2,788.85c2.61.28,5.71-.81,8.04.68,3.97,10.22,7.38,20.69,10.91,31.09,3.56-9.75,6.66-19.66,10.12-29.45.72-3.71,5.28-1.96,7.87-2.35-.85,4.5-2.78,8.67-4.32,12.96-3.73,10.02-7.49,20.02-11.2,30.05-1.66,4.31-3.27,8.97-6.86,12.09-4.3,3.5-10.27,3.76-15.48,2.68.14-1.99.33-3.96.55-5.93,3.6-.14,8.01.94,10.83-1.99,2.36-2.55,3.65-5.98,4.44-9.31-4.64-13.62-10.46-26.83-14.9-40.52h0Z"/>
  <path class="cls-7" d="M1208.51,789.12c2.32-.29,4.68-.29,7.02-.01.14,13.23.15,26.46,0,39.69-2.35.09-4.68.1-7.01,0-.13-13.23-.11-26.45-.01-39.68h0Z"/>
  <path class="cls-7" d="M1441.5,788.73c2.29.07,4.6.23,6.9.5.12,13.14.09,26.28.02,39.42-2.29.25-4.59.44-6.87.61-.49-13.49-.4-27.04-.05-40.53h0Z"/>
  <path class="cls-7" d="M1290.86,821.98c2.77-3.18,7.68-.53,8.19,3.17.66,5.99-3.15,11.64-8.06,14.78-.68-.84-1.35-1.66-2-2.49,1.36-1.99,3.42-3.86,3.49-6.43-1.13-2.8-4.72-6.23-1.62-9.03h0Z"/>
</svg>